<?xml version="1.0" standalone="no"?>
<!DOCTYPE svg PUBLIC "-//W3C//DTD SVG 20010904//EN"
 "http://www.w3.org/TR/2001/REC-SVG-20010904/DTD/svg10.dtd">
<svg version="1.0" xmlns="http://www.w3.org/2000/svg"
 width="70.000000pt" height="88.000000pt" viewBox="0 0 70.000000 88.000000"
 preserveAspectRatio="xMidYMid meet">

<g transform="translate(0.000000,88.000000) scale(0.100000,-0.100000)"
fill="#000000" stroke="none">
<path d="M500 830 c0 -5 9 -10 19 -10 30 0 63 -32 55 -54 -6 -16 -15 -18 -63
-13 -31 3 -100 19 -155 36 -54 17 -113 31 -130 31 -77 -1 -156 -67 -156 -133
0 -36 25 -83 50 -97 23 -12 25 -7 9 21 -8 16 -7 26 6 45 21 33 59 32 227 -8
l138 -33 0 -66 c0 -60 -3 -68 -30 -94 l-30 -29 30 -31 c29 -30 30 -35 30 -118
0 -85 -1 -88 -26 -97 -47 -18 -136 -12 -184 12 -24 13 -43 28 -42 33 0 6 37
25 82 44 l80 34 0 148 c0 82 -4 149 -8 149 -5 0 -50 -18 -101 -40 -50 -22 -94
-40 -97 -40 -14 0 2 27 42 70 41 44 44 50 25 50 -66 0 -166 -81 -201 -162 -32
-74 -25 -182 15 -257 55 -100 160 -161 278 -161 118 0 214 55 261 149 25 50
42 131 27 131 -5 0 -23 -22 -40 -49 -18 -27 -43 -57 -57 -65 l-24 -16 0 73 c0
70 1 74 35 107 l35 34 -35 36 c-32 32 -35 41 -35 93 l0 56 43 12 c108 28 129
135 38 196 -35 23 -111 32 -111 13z m-220 -430 l0 -119 -31 -16 c-29 -15 -32
-15 -45 2 -24 31 -36 85 -32 148 l3 60 45 22 c25 12 48 22 53 22 4 1 7 -53 7
-119z"/>
</g>
</svg>
