<?xml version="1.0" standalone="no"?>
<!DOCTYPE svg PUBLIC "-//W3C//DTD SVG 20010904//EN"
 "http://www.w3.org/TR/2001/REC-SVG-20010904/DTD/svg10.dtd">
<svg version="1.0" xmlns="http://www.w3.org/2000/svg"
 width="951.000000pt" height="106.000000pt" viewBox="0 0 951.000000 106.000000"
 preserveAspectRatio="xMidYMid meet">

<g transform="translate(0.000000,106.000000) scale(0.100000,-0.100000)"
fill="#000000" stroke="none">
<path d="M500 1010 c0 -5 9 -10 19 -10 30 0 63 -32 55 -54 -6 -16 -15 -18 -63
-13 -31 3 -100 19 -155 36 -54 17 -113 31 -130 31 -77 -1 -156 -67 -156 -133
0 -36 25 -83 50 -97 23 -12 25 -7 9 21 -8 16 -7 26 6 45 21 33 59 32 227 -8
l138 -33 0 -66 c0 -60 -3 -68 -30 -94 l-30 -29 30 -31 c29 -30 30 -35 30 -118
0 -85 -1 -88 -26 -97 -47 -18 -136 -12 -184 12 -24 13 -43 28 -42 33 0 6 37
25 82 44 l80 34 0 148 c0 82 -4 149 -8 149 -5 0 -50 -18 -101 -40 -50 -22 -94
-40 -97 -40 -14 0 2 27 42 70 41 44 44 50 25 50 -66 0 -166 -81 -201 -162 -32
-74 -25 -182 15 -257 55 -100 160 -161 278 -161 118 0 214 55 261 149 25 50
42 131 27 131 -5 0 -23 -22 -40 -49 -18 -27 -43 -57 -57 -65 l-24 -16 0 73 c0
70 1 74 35 107 l35 34 -35 36 c-32 32 -35 41 -35 93 l0 56 43 12 c108 28 129
135 38 196 -35 23 -111 32 -111 13z m-220 -430 l0 -119 -31 -16 c-29 -15 -32
-15 -45 2 -24 31 -36 85 -32 148 l3 60 45 22 c25 12 48 22 53 22 4 1 7 -53 7
-119z"/>
<path d="M7340 1012 c0 -4 15 -12 33 -17 25 -8 32 -15 32 -35 0 -24 -3 -25
-56 -24 -30 1 -91 13 -135 27 -43 15 -97 29 -119 33 -143 22 -247 -125 -151
-215 l25 -23 -30 -41 c-111 -153 -52 -363 126 -448 50 -24 73 -29 135 -29 123
1 209 51 260 153 43 87 40 174 -4 93 -10 -19 -33 -49 -52 -67 l-34 -33 0 79
c0 75 1 81 32 112 l32 33 -32 33 c-28 29 -32 39 -32 90 0 59 0 60 51 71 14 3
38 18 52 32 53 53 27 146 -48 174 -31 12 -85 13 -85 2z m-158 -182 c67 -16
130 -30 140 -30 15 0 18 -9 18 -62 0 -56 -3 -65 -32 -95 l-32 -33 32 -33 c31
-32 32 -36 32 -119 0 -86 0 -86 -30 -98 -49 -20 -160 -9 -203 20 -20 14 -33
28 -29 31 4 3 39 19 77 34 39 16 76 33 83 38 16 12 18 297 1 297 -5 0 -53 -18
-106 -41 -52 -22 -97 -38 -99 -36 -7 6 55 87 71 94 8 3 15 9 15 14 0 17 -45 9
-89 -16 -48 -28 -71 -21 -71 21 0 52 52 55 222 14z m-62 -250 l0 -121 -32 -14
c-41 -17 -51 -9 -72 52 -16 48 -20 102 -10 140 5 18 78 61 107 63 4 0 7 -54 7
-120z"/>
<path d="M825 944 c-44 -31 -82 -58 -84 -60 -2 -2 8 -15 22 -28 l27 -25 0
-235 0 -234 -36 -22 c-23 -15 -32 -26 -26 -32 6 -6 17 -6 29 1 16 8 28 2 70
-34 l51 -44 58 40 c73 51 67 46 59 58 -4 8 -12 8 -24 1 -14 -7 -23 -5 -35 9
-13 14 -16 41 -16 137 0 119 0 121 28 147 l28 27 33 -28 33 -28 -4 -164 c-4
-186 -16 -228 -75 -265 -43 -27 -42 -45 2 -45 73 0 141 44 178 115 18 35 21
62 25 223 4 169 6 183 24 193 14 7 17 14 10 21 -7 7 -17 6 -31 -2 -19 -10 -28
-6 -72 31 -56 47 -49 48 -131 -30 l-48 -45 0 187 c0 103 -3 187 -8 187 -4 0
-43 -25 -87 -56z"/>
<path d="M2278 977 c-33 -20 -40 -21 -80 -8 -81 25 -124 25 -158 1 -33 -24
-95 -108 -86 -117 3 -3 17 6 32 22 27 29 23 29 166 8 l37 -5 -54 -50 c-32 -29
-65 -72 -82 -106 -24 -49 -28 -69 -28 -147 0 -82 3 -96 33 -157 51 -104 152
-179 263 -194 41 -5 49 -2 116 45 40 28 77 51 82 51 5 0 33 -20 62 -45 l52
-45 56 47 c31 26 60 50 65 55 16 13 -3 22 -19 8 -13 -11 -20 -9 -40 10 l-25
23 0 263 c0 260 0 263 22 278 15 11 19 19 12 26 -7 7 -16 6 -29 -4 -17 -12
-24 -10 -62 21 l-43 35 -65 -41 c-35 -23 -67 -41 -70 -41 -3 0 -5 20 -5 45 0
25 -3 45 -6 45 -14 0 -126 -94 -151 -127 -28 -36 -28 -39 -31 -198 l-3 -162
-26 -12 c-21 -10 -28 -9 -34 1 -14 22 -21 94 -18 171 5 93 47 181 121 255 59
58 57 84 -4 49z m132 -337 l0 -310 -27 0 c-41 0 -108 37 -147 81 -20 21 -36
43 -36 48 0 5 37 25 83 43 l82 35 5 189 c5 180 11 224 31 224 5 0 9 -135 9
-310z m92 233 c26 -24 28 -33 28 -98 l0 -71 -45 -22 c-25 -12 -48 -22 -50 -22
-3 0 -5 48 -5 106 0 90 3 109 18 120 23 18 22 18 54 -13z m28 -238 c0 -30 -5
-37 -40 -55 -54 -27 -62 -26 -58 12 2 26 11 37 43 55 52 30 55 29 55 -12z m0
-160 l0 -94 -37 -26 c-60 -40 -63 -37 -63 70 l0 95 48 24 c26 14 48 25 50 26
1 0 2 -43 2 -95z"/>
<path d="M2905 978 c-16 -12 -54 -40 -84 -62 l-54 -39 26 -19 27 -20 0 -239 0
-240 -30 -17 c-16 -9 -30 -23 -30 -29 0 -15 16 -17 25 -3 10 17 21 12 75 -34
l53 -45 58 42 c60 42 76 64 38 52 -13 -4 -27 0 -40 11 -18 16 -19 34 -19 341
0 177 -3 323 -7 323 -5 0 -21 -10 -38 -22z"/>
<path d="M6109 949 c-100 -70 -98 -67 -69 -89 l25 -19 3 -239 3 -240 -36 -22
c-36 -22 -40 -49 -4 -29 17 9 28 3 73 -34 l52 -45 62 41 c63 43 79 64 40 54
-14 -4 -29 0 -40 10 -17 15 -18 42 -18 340 0 177 -4 323 -8 323 -5 0 -42 -23
-83 -51z"/>
<path d="M7652 920 l-44 -39 37 -46 c21 -25 43 -45 49 -45 7 0 29 18 50 39
l39 39 -38 46 c-21 25 -40 46 -44 46 -3 -1 -26 -18 -49 -40z"/>
<path d="M5088 830 c-77 -41 -90 -105 -33 -168 49 -55 55 -79 55 -212 0 -116
0 -118 -26 -135 -19 -12 -23 -20 -15 -28 7 -7 15 -6 25 2 13 11 26 6 81 -28
35 -23 68 -41 72 -41 5 0 58 31 118 68 l110 67 3 135 c2 100 6 138 17 150 13
15 11 20 -18 46 -65 61 -62 60 -114 18 -27 -21 -50 -39 -52 -41 -3 -2 5 -13
17 -26 21 -22 22 -33 22 -175 0 -176 -3 -181 -75 -136 l-45 29 0 140 c0 158
-9 184 -74 224 -46 29 -56 64 -27 95 38 41 20 48 -41 16z"/>
<path d="M4725 686 l-110 -64 -3 -128 c-2 -101 -6 -132 -19 -146 -8 -10 -19
-15 -24 -12 -5 3 -18 0 -30 -6 -16 -9 -24 -8 -40 6 -17 15 -19 32 -19 147 0
120 2 133 22 154 26 28 17 41 -17 23 -24 -13 -28 -11 -63 21 -69 65 -64 64
-122 18 l-52 -41 -42 41 -42 41 -67 -47 c-43 -30 -64 -50 -58 -56 7 -7 16 -6
26 3 12 10 18 8 35 -11 17 -21 19 -40 20 -153 0 -109 -3 -132 -17 -149 -17
-18 -17 -20 22 -53 69 -59 70 -59 120 -13 l46 42 -21 22 c-18 19 -20 34 -20
158 0 128 1 137 22 151 20 14 24 13 54 -12 l33 -27 0 -129 c1 -97 -2 -133 -13
-145 -12 -14 -8 -21 35 -60 l50 -43 69 46 c39 25 70 43 70 40 0 -3 11 1 25 10
25 17 27 16 94 -33 l69 -50 111 67 111 67 0 136 0 136 -62 48 c-35 27 -68 52
-73 56 -6 4 -60 -21 -120 -55z m83 -58 l42 -29 0 -145 0 -144 -55 36 -55 37 0
144 c0 113 3 143 13 137 6 -4 31 -20 55 -36z"/>
<path d="M1393 679 l-113 -61 0 -134 c0 -123 -2 -134 -20 -144 -11 -6 -20 -17
-20 -25 0 -19 5 -19 33 0 22 14 27 12 97 -39 l75 -54 97 81 c108 87 113 93 98
102 -6 3 -29 -9 -53 -28 -23 -19 -48 -37 -55 -41 -17 -10 -132 72 -132 95 0
11 36 40 108 85 59 36 108 68 110 69 7 6 -93 155 -103 154 -5 0 -61 -27 -122
-60z m69 -66 c19 -27 37 -53 41 -60 4 -7 -12 -23 -43 -42 -28 -17 -52 -31 -55
-31 -3 0 -5 38 -5 83 0 115 10 123 62 50z"/>
<path d="M3105 704 c-27 -19 -56 -39 -64 -43 -8 -5 -11 -13 -7 -19 5 -9 12 -8
26 0 15 10 23 9 39 -6 19 -18 21 -31 21 -162 l0 -143 72 -50 72 -49 44 30 c24
16 44 28 46 26 19 -28 37 -92 32 -112 -8 -31 -29 -33 -63 -7 -60 48 -164 31
-224 -36 -33 -38 -28 -64 9 -44 34 18 87 13 125 -13 l35 -24 121 84 c66 46
123 93 126 104 3 10 -1 33 -9 49 -13 23 -16 65 -16 188 l0 158 -48 53 -47 52
-48 -31 -48 -32 23 -24 c16 -17 24 -42 29 -91 11 -96 11 -232 0 -232 -5 0 -32
14 -60 31 l-51 32 0 130 0 130 -37 41 c-20 22 -39 42 -42 43 -3 1 -28 -14 -56
-33z"/>
<path d="M3715 708 c-84 -42 -105 -64 -105 -109 0 -29 7 -43 31 -63 17 -14 35
-26 41 -26 6 0 -8 -14 -31 -30 -48 -35 -81 -84 -81 -120 0 -52 73 -130 122
-130 10 0 41 16 69 36 l50 37 38 -37 39 -38 71 47 c39 26 68 51 65 56 -3 5
-14 3 -24 -3 -16 -10 -23 -8 -45 12 -24 23 -25 28 -25 147 0 123 0 124 28 148
32 27 23 44 -13 25 -22 -12 -29 -10 -77 22 -91 60 -86 59 -153 26z m95 -165
l0 -45 -32 7 c-120 27 -175 89 -124 140 l25 25 65 -41 c65 -41 66 -42 66 -86z
m0 -150 c0 -83 -9 -94 -58 -69 -49 25 -77 109 -52 156 9 17 12 17 60 2 l50
-16 0 -73z"/>
<path d="M5688 682 l-98 -56 0 -73 c0 -71 1 -72 35 -99 l36 -27 -25 -26 c-38
-41 -66 -93 -66 -124 0 -34 24 -82 44 -90 20 -8 26 1 20 32 -11 52 51 66 99
23 21 -19 34 -13 148 61 l64 42 3 72 3 71 -46 33 c-45 32 -45 33 -26 53 41 46
82 166 56 166 -6 0 -20 -9 -30 -20 -10 -11 -28 -20 -40 -20 -12 0 -34 9 -48
20 -14 11 -27 20 -29 19 -1 0 -47 -26 -100 -57z m134 -72 l51 -5 -57 -49 c-55
-47 -58 -48 -76 -31 -16 14 -20 31 -20 78 l0 60 26 -24 c17 -16 41 -25 76 -29z
m-32 -162 c27 -20 30 -27 30 -82 l0 -60 -31 30 c-27 25 -38 29 -90 29 l-60 0
58 52 c32 29 59 52 61 53 2 0 16 -10 32 -22z"/>
<path d="M6292 624 l-73 -114 97 -143 c53 -78 98 -143 98 -144 1 -1 37 21 79
49 55 36 75 54 67 62 -7 7 -17 7 -31 -3 -12 -7 -25 -9 -29 -4 -26 28 -190 286
-186 291 3 3 17 0 31 -6 34 -15 96 -15 116 1 25 19 59 79 59 105 0 26 -6 28
-26 7 -27 -27 -63 -29 -94 -6 -16 11 -30 21 -32 21 -2 -1 -36 -53 -76 -116z"/>
<path d="M7618 699 c-32 -22 -58 -44 -58 -49 0 -13 7 -12 30 0 14 8 21 5 34
-15 13 -19 16 -52 16 -154 l0 -130 -30 -21 c-17 -12 -28 -26 -24 -31 4 -6 11
-6 20 2 15 13 24 8 81 -44 l32 -30 71 48 c48 34 67 52 60 59 -7 7 -17 7 -31
-2 -18 -11 -24 -11 -40 4 -17 15 -19 32 -19 169 l0 151 -36 42 c-19 23 -39 42
-42 41 -4 0 -33 -18 -64 -40z"/>
<path d="M7923 694 c-35 -25 -63 -49 -63 -55 0 -11 11 -11 30 1 10 6 20 4 32
-7 16 -14 18 -35 18 -160 0 -118 -3 -145 -15 -149 -23 -9 -19 -16 40 -62 l55
-43 45 38 c25 20 45 40 45 44 0 3 -9 14 -20 24 -19 17 -20 29 -18 158 3 130 4
141 25 154 19 13 24 11 57 -17 l36 -32 0 -121 c0 -109 -2 -123 -21 -143 l-21
-22 42 -39 c23 -21 46 -39 50 -41 3 -1 30 16 59 39 l52 42 -25 26 c-25 26 -26
31 -26 158 0 129 0 131 25 147 24 16 27 16 60 -11 l35 -28 0 -131 c0 -122 -1
-133 -21 -145 -20 -14 -19 -16 30 -57 l51 -43 75 46 c54 34 75 53 75 68 0 20
-1 20 -20 2 -20 -18 -21 -18 -45 5 -24 23 -25 28 -25 151 0 126 0 128 26 148
22 17 24 22 10 27 -9 3 -22 1 -30 -5 -10 -8 -19 -5 -37 15 -13 14 -36 35 -51
45 l-27 20 -55 -36 c-31 -20 -62 -38 -70 -41 -7 -3 -35 13 -61 36 l-47 41 -34
-21 c-19 -11 -49 -29 -68 -40 l-34 -21 -32 41 c-17 22 -35 40 -38 40 -4 0 -35
-21 -69 -46z"/>
<path d="M8803 679 l-113 -61 0 -134 c0 -123 -2 -134 -20 -144 -11 -6 -20 -17
-20 -25 0 -19 5 -19 33 0 22 14 27 12 97 -39 l75 -54 97 81 c108 87 113 93 98
102 -6 3 -29 -9 -53 -28 -23 -19 -48 -37 -55 -41 -17 -10 -132 72 -132 95 0
11 36 40 108 85 59 36 108 68 110 69 7 6 -93 155 -103 154 -5 0 -61 -27 -122
-60z m69 -66 c19 -27 37 -53 41 -60 4 -7 -12 -23 -43 -42 -28 -17 -52 -31 -55
-31 -3 0 -5 38 -5 83 0 115 10 123 62 50z"/>
<path d="M9220 681 l-95 -57 -3 -70 -3 -70 40 -29 39 -30 -38 -41 c-64 -69
-71 -133 -23 -186 24 -27 36 -22 30 12 -12 57 40 78 89 36 l28 -23 98 59 98
59 0 80 c0 43 -3 79 -7 79 -5 0 -24 14 -43 30 l-35 28 23 25 c23 24 62 114 62
142 0 22 -23 18 -38 -5 -7 -11 -23 -20 -36 -20 -13 0 -35 9 -49 20 -14 11 -29
20 -34 19 -4 0 -51 -26 -103 -58z m138 -71 l46 0 -30 -31 c-16 -17 -42 -40
-58 -51 l-29 -21 -18 24 c-13 17 -19 41 -19 82 l0 59 31 -31 c25 -26 38 -31
77 -31z m-25 -168 c13 -11 17 -30 17 -75 l0 -59 -36 32 c-33 28 -42 31 -86 28
l-50 -3 57 53 c56 52 63 54 98 24z"/>
</g>
</svg>
